<?xml version="1.0" encoding="utf-8"?>
<!-- Generator: Adobe Illustrator 18.1.1, SVG Export Plug-In . SVG Version: 6.00 Build 0)  -->
<svg version="1.1" id="Layer_1" xmlns="http://www.w3.org/2000/svg" xmlns:xlink="http://www.w3.org/1999/xlink" x="0px" y="0px"
	 viewBox="0 0 288 288" enable-background="new 0 0 288 288" xml:space="preserve">
<path fill="#F26222" d="M248.8,236.8l-16.2-39L218.8,184c8.7-13,13.7-28.6,13.7-45.3v0c0-45.3-36.7-81.9-81.9-81.9h-43.8l42.7,42.7
	h1.1c23.4,0,42.4,19,42.4,42.4c0,4.9-0.9,9.6-2.5,13.9l-56.3-56.3h0L91.5,56.7h0l0,0L75.3,40.5L52.5,63.3l16.3,16.3v141h81.8
	c12.8,0,24.9-3,35.6-8.2l-28.7-28.8c-2.2,0.4-4.5,0.6-6.8,0.6h-42.4v-65.1l60.8,60.8c0,0,0,0,0,0l26.9,26.9c0,0,0,0,0,0l13.8,13.8
	L248.8,236.8L248.8,236.8L248.8,236.8z"/>
</svg>
