<?xml version="1.0" standalone="no"?>
<!DOCTYPE svg PUBLIC "-//W3C//DTD SVG 20010904//EN"
 "http://www.w3.org/TR/2001/REC-SVG-20010904/DTD/svg10.dtd">
<svg version="1.0" xmlns="http://www.w3.org/2000/svg"
 width="624.000000pt" height="624.000000pt" viewBox="0 0 624.000000 624.000000"
 preserveAspectRatio="xMidYMid meet">
<metadata>
Created by potrace 1.11, written by Peter Selinger 2001-2013
</metadata>
<g transform="translate(0.000000,624.000000) scale(0.100000,-0.100000)"
fill="#000000" stroke="none">
<path d="M415 5820 l-360 -360 258 -258 257 -257 0 -2203 0 -2203 1393 4
c1492 3 1425 1 1682 53 167 34 443 126 565 189 l33 17 -452 452 -453 453 -46
-8 c-26 -4 -370 -8 -764 -8 l-718 -1 0 1007 0 1008 1583 -1582 1582 -1581 608
-252 c334 -139 609 -251 611 -249 2 2 -110 278 -250 613 l-253 610 -213 213
-213 213 19 33 c147 246 215 393 284 610 170 530 159 1120 -30 1642 -339 938
-1198 1597 -2193 1684 -137 12 -1585 15 -1585 3 0 -4 298 -305 663 -669 l662
-661 100 -7 c353 -24 630 -147 871 -389 200 -199 322 -430 371 -700 20 -108
22 -340 4 -436 -16 -87 -52 -210 -62 -210 -4 0 -814 808 -1801 1795 l-1793
1795 -360 -360z"/>
</g>
</svg>
